<svg xmlns="http://www.w3.org/2000/svg" version="1.1" xmlns:xlink="http://www.w3.org/1999/xlink" xmlns:svgjs="http://svgjs.dev/svgjs" width="1000" height="262" viewBox="0 0 1000 262"><g transform="matrix(1,0,0,1,-0.6060493973529901,-0.16602481413457326)"><svg viewBox="0 0 396 104" data-background-color="#ea3c12" preserveAspectRatio="xMidYMid meet" height="262" width="1000" xmlns="http://www.w3.org/2000/svg" xmlns:xlink="http://www.w3.org/1999/xlink"><g id="tight-bounds" transform="matrix(1,0,0,1,0.23999593001713038,0.06590345365475514)"><svg viewBox="0 0 395.52 103.86819356668875" height="103.86819356668875" width="395.52"><g><svg viewBox="0 0 628.2001996682625 164.9727445837773" height="103.86819356668875" width="395.52"><g><rect width="7.377809446752171" height="119.96932583697263" x="205.9887529263476" y="22.501709373402342" fill="#ffffff" opacity="1" stroke-width="0" stroke="transparent" fill-opacity="1" class="rect-o-0" data-fill-palette-color="primary" rx="1%" id="o-0" data-palette-color="#ffffff"></rect></g><g transform="matrix(1,0,0,1,232.6801996682625,22.80014053220078)"><svg viewBox="0 0 395.52 119.37246351937576" height="119.37246351937576" width="395.52"><g id="textblocktransform"><svg viewBox="0 0 395.52 119.37246351937576" height="119.37246351937576" width="395.52" id="textblock"><g><svg viewBox="0 0 395.52 81.8111002184159" height="81.8111002184159" width="395.52"><g transform="matrix(1,0,0,1,0,0)"><svg width="395.52" viewBox="0.3500000238418579 -36.150001525878906 179.15977111816406 36.75" height="81.8111002184159" data-palette-color="#ffffff"><g transform="matrix(1,0,0,1,0,0)"><g><svg width="18.2465185546875" viewBox="0.940000057220459 -36.36000061035156 82.06999969482422 36.36000061035156" height="8.085" data-palette-color="#ffffff" id="scriptelement" x="161.26325865374037" y="-36.150001525878906"><path d="M18.84 0L11.35 0 0.94-36.36 9.34-36.36 15.36-11.1 15.66-11.1 22.3-36.36 29.49-36.36 36.12-11.04 36.43-11.04 42.45-36.36 50.85-36.36 40.45 0 32.95 0 26.03-23.77 25.75-23.77 18.84 0ZM70.49 0L54.95 0 54.95-36.36 69.51-36.36Q73.52-36.36 76.2-35.17 78.89-33.98 80.24-31.88 81.58-29.78 81.58-27.04L81.58-27.04Q81.58-24.91 80.73-23.3 79.88-21.7 78.4-20.68 76.92-19.66 75.02-19.23L75.02-19.23 75.02-18.87Q77.09-18.79 78.91-17.7 80.73-16.62 81.87-14.68 83.01-12.73 83.01-10.05L83.01-10.05Q83.01-7.16 81.58-4.89 80.15-2.63 77.36-1.31 74.57 0 70.49 0L70.49 0ZM62.64-15.94L62.64-6.29 68.91-6.29Q72.12-6.29 73.59-7.52 75.07-8.75 75.07-10.81L75.07-10.81Q75.07-12.32 74.34-13.48 73.61-14.63 72.27-15.29 70.93-15.94 69.08-15.94L69.08-15.94 62.64-15.94ZM62.64-30.15L62.64-21.15 68.34-21.15Q69.92-21.15 71.15-21.71 72.39-22.27 73.11-23.3 73.83-24.33 73.83-25.76L73.83-25.76Q73.83-27.73 72.43-28.94 71.04-30.15 68.48-30.15L68.48-30.15 62.64-30.15Z" opacity="1" transform="matrix(1,0,0,1,0,0)" fill="#ffffff" class="undefined-123" data-fill-palette-color="primary" id="p-123"></path></svg></g></g><g class="wordmark-text-0" data-fill-palette-color="primary" id="text-0"><path d="M8.15 0L0.35-34.3 5.55-34.3 10.4-11.4Q10.8-9.7 11.35-5.75L11.35-5.75 11.55-5.75Q11.9-9.05 12.35-11.4L12.35-11.4 16.35-34.3 22.8-34.3 27-11.4Q27.4-9.4 27.85-5.75L27.85-5.75 28.05-5.75Q28.5-9.45 28.95-11.4L28.95-11.4 33.85-34.3 38.35-34.3 30.55 0 24.6 0 20.25-22.8Q19.85-24.85 19.4-29.05L19.4-29.05 19.2-29.05Q18.7-24.75 18.35-22.8L18.35-22.8 14.05 0 8.15 0ZM46.9 0.6Q44.3 0.6 42.2-1.03 40.1-2.65 40.1-6.8L40.1-6.8Q40.1-11.85 43.52-13.8 46.95-15.75 53.3-15.75L53.3-15.75 53.3-18.9Q53.3-20.8 52.5-21.83 51.7-22.85 49.6-22.85L49.6-22.85Q47.6-22.85 46.72-21.78 45.85-20.7 45.85-19.15L45.85-19.15 45.85-18.5 41.2-18.5Q41.15-18.8 41.15-19.6L41.15-19.6Q41.15-23.05 43.5-24.98 45.85-26.9 49.75-26.9L49.75-26.9Q53.85-26.9 55.92-24.95 58-23 58-19.4L58-19.4 58-5.25Q58-4.4 58.4-3.95 58.8-3.5 59.4-3.5L59.4-3.5 60.9-3.5 60.9-0.2Q59.8 0.45 57.95 0.45L57.95 0.45Q56.3 0.45 55.15-0.43 54-1.3 53.6-2.85L53.6-2.85 53.35-2.85Q51.1 0.6 46.9 0.6L46.9 0.6ZM48.35-3.5Q50.4-3.5 51.85-5.2 53.3-6.9 53.3-9.75L53.3-9.75 53.3-11.85Q49.3-11.85 47.12-10.85 44.95-9.85 44.95-7.15L44.95-7.15Q44.95-5.2 45.77-4.35 46.6-3.5 48.35-3.5L48.35-3.5ZM62.65 0L62.65-2.15 73.8-22.2 63.4-22.2 63.4-26.3 80.25-26.3 80.25-24.2 69.05-4.1 80.8-4.1 80.8 0 62.65 0ZM85.34 0L85.34-26.3 90.04-26.3 90.04 0 85.34 0ZM85.24-31.1L85.24-36.15 90.04-36.15 90.04-31.1 85.24-31.1ZM96.54 0L96.54-34.3 110.09-34.3Q112.69-34.3 114.74-33.25 116.79-32.2 117.97-30.28 119.14-28.35 119.14-25.85L119.14-25.85Q119.14-23 117.67-20.9 116.19-18.8 113.89-18L113.89-18 113.89-17.8Q116.54-17 118.24-14.68 119.94-12.35 119.94-9.15L119.94-9.15Q119.94-6.35 118.62-4.28 117.29-2.2 115.04-1.1 112.79 0 110.09 0L110.09 0 96.54 0ZM101.59-19.8L108.69-19.8Q111.04-19.8 112.47-21.28 113.89-22.75 113.89-24.85L113.89-24.85Q113.89-27.25 112.59-28.5 111.29-29.75 108.99-29.75L108.99-29.75 101.59-29.75 101.59-19.8ZM101.59-4.55L109.39-4.55Q111.74-4.55 113.22-5.93 114.69-7.3 114.69-9.8L114.69-9.8Q114.69-12.1 113.17-13.7 111.64-15.3 109.09-15.3L109.09-15.3 101.59-15.3 101.59-4.55ZM124.79 0L124.79-26.3 129.49-26.3 129.49 0 124.79 0ZM124.69-31.1L124.69-36.15 129.49-36.15 129.49-31.1 124.69-31.1ZM133.99 0L133.99-2.15 145.14-22.2 134.74-22.2 134.74-26.3 151.59-26.3 151.59-24.2 140.39-4.1 152.14-4.1 152.14 0 133.99 0Z" fill="#ffffff" data-fill-palette-color="primary"></path></g></svg></g></svg></g><g transform="matrix(1,0,0,1,0,101.12473751357865)"><svg viewBox="0 0 232.209792 18.2477260057971" height="18.2477260057971" width="232.209792"><g transform="matrix(1,0,0,1,0,0)"><svg width="232.209792" viewBox="1.2000000476837158 -37.70000076293945 606.3800048828125 47.65999984741211" height="18.2477260057971" data-palette-color="#ffffff"><path d="M1.2-24.51L1.2-24.51Q1.2-26.68 2.03-28.59 2.86-30.49 4.28-31.92 5.71-33.35 7.62-34.18 9.52-35.01 11.69-35.01L11.69-35.01 27.76-35.01 27.76-28 11.69-28Q10.96-28 10.33-27.73 9.69-27.47 9.22-26.99 8.74-26.51 8.47-25.88 8.2-25.24 8.2-24.51L8.2-24.51Q8.2-23.78 8.47-23.13 8.74-22.49 9.22-22.01 9.69-21.53 10.33-21.26 10.96-21 11.69-21L11.69-21 18.7-21Q20.87-21 22.79-20.18 24.71-19.36 26.14-17.93 27.56-16.5 28.38-14.59 29.2-12.67 29.2-10.5L29.2-10.5Q29.2-8.33 28.38-6.42 27.56-4.52 26.14-3.09 24.71-1.66 22.79-0.83 20.87 0 18.7 0L18.7 0 3.15 0 3.15-7.01 18.7-7.01Q19.43-7.01 20.07-7.28 20.7-7.54 21.18-8.02 21.66-8.5 21.92-9.13 22.19-9.77 22.19-10.5L22.19-10.5Q22.19-11.23 21.92-11.87 21.66-12.5 21.18-12.98 20.7-13.45 20.07-13.72 19.43-13.99 18.7-13.99L18.7-13.99 11.69-13.99Q9.52-13.99 7.62-14.82 5.71-15.65 4.28-17.08 2.86-18.51 2.03-20.42 1.2-22.34 1.2-24.51ZM39.74-14.94L39.74 0 33.08 0 33.08-36.55 39.74-36.55 39.74-25Q40.94-25.9 42.21-26.28 43.48-26.66 44.8-26.66L44.8-26.66Q47.21-26.66 49.34-25.74 51.46-24.83 53.04-23.23 54.61-21.63 55.53-19.49 56.44-17.36 56.44-14.94L56.44-14.94 56.44 0 49.73 0 49.73-14.94 49.78-14.94Q49.78-15.97 49.39-16.88 49-17.8 48.31-18.48 47.63-19.17 46.73-19.56 45.82-19.95 44.8-19.95L44.8-19.95Q43.75-19.95 42.82-19.56 41.89-19.17 41.21-18.48 40.52-17.8 40.13-16.88 39.74-15.97 39.74-14.94L39.74-14.94ZM86.45-13.31L86.45-13.31Q86.45-10.38 85.4-7.85 84.35-5.32 82.54-3.48 80.73-1.64 78.3-0.57 75.87 0.49 73.09 0.49L73.09 0.49Q70.33 0.49 67.9-0.57 65.47-1.64 63.65-3.48 61.84-5.32 60.79-7.85 59.74-10.38 59.74-13.31L59.74-13.31Q59.74-16.28 60.79-18.82 61.84-21.36 63.65-23.21 65.47-25.05 67.9-26.1 70.33-27.15 73.09-27.15L73.09-27.15Q75.87-27.15 78.3-26.16 80.73-25.17 82.54-23.35 84.35-21.53 85.4-18.98 86.45-16.43 86.45-13.31ZM79.73-13.31L79.73-13.31Q79.73-14.92 79.21-16.22 78.68-17.53 77.78-18.47 76.87-19.41 75.67-19.91 74.46-20.41 73.09-20.41L73.09-20.41Q71.72-20.41 70.52-19.91 69.31-19.41 68.42-18.47 67.52-17.53 67.01-16.22 66.5-14.92 66.5-13.31L66.5-13.31Q66.5-11.79 67.01-10.5 67.52-9.2 68.42-8.25 69.31-7.3 70.52-6.75 71.72-6.2 73.09-6.2L73.09-6.2Q74.46-6.2 75.67-6.71 76.87-7.23 77.78-8.15 78.68-9.08 79.21-10.4 79.73-11.72 79.73-13.31ZM96.84-1.76L96.84 9.96 90.13 9.96 90.13-26.15 91.74-26.15 94.4-23Q95.31-23.85 96.38-24.61 97.45-25.37 98.61-25.92 99.77-26.46 101.02-26.78 102.26-27.1 103.53-27.1L103.53-27.1Q106.29-27.1 108.72-26.11 111.15-25.12 112.97-23.32 114.79-21.51 115.84-18.96 116.89-16.41 116.89-13.31L116.89-13.31Q116.89-10.08 115.84-7.51 114.79-4.93 112.97-3.14 111.15-1.34 108.72-0.39 106.29 0.56 103.53 0.56L103.53 0.56Q102.65 0.56 101.79 0.37 100.92 0.17 100.08-0.16 99.24-0.49 98.42-0.9 97.6-1.32 96.84-1.76L96.84-1.76ZM110.2-13.31L110.2-13.31Q110.2-14.97 109.67-16.28 109.15-17.6 108.24-18.52 107.34-19.43 106.12-19.92 104.9-20.41 103.53-20.41L103.53-20.41Q102.17-20.41 100.96-19.92 99.75-19.43 98.85-18.52 97.94-17.6 97.42-16.28 96.89-14.97 96.89-13.31L96.89-13.31Q96.89-11.72 97.42-10.4 97.94-9.08 98.85-8.15 99.75-7.23 100.96-6.71 102.17-6.2 103.53-6.2L103.53-6.2Q104.9-6.2 106.12-6.71 107.34-7.23 108.24-8.15 109.15-9.08 109.67-10.4 110.2-11.72 110.2-13.31ZM133.22-24.51L133.22-24.51Q133.22-26.68 134.05-28.59 134.88-30.49 136.3-31.92 137.73-33.35 139.64-34.18 141.54-35.01 143.71-35.01L143.71-35.01 159.78-35.01 159.78-28 143.71-28Q142.98-28 142.35-27.73 141.71-27.47 141.24-26.99 140.76-26.51 140.49-25.88 140.22-25.24 140.22-24.51L140.22-24.51Q140.22-23.78 140.49-23.13 140.76-22.49 141.24-22.01 141.71-21.53 142.35-21.26 142.98-21 143.71-21L143.71-21 150.72-21Q152.89-21 154.81-20.18 156.73-19.36 158.15-17.93 159.58-16.5 160.4-14.59 161.22-12.67 161.22-10.5L161.22-10.5Q161.22-8.33 160.4-6.42 159.58-4.52 158.15-3.09 156.73-1.66 154.81-0.83 152.89 0 150.72 0L150.72 0 135.17 0 135.17-7.01 150.72-7.01Q151.45-7.01 152.09-7.28 152.72-7.54 153.2-8.02 153.67-8.5 153.94-9.13 154.21-9.77 154.21-10.5L154.21-10.5Q154.21-11.23 153.94-11.87 153.67-12.5 153.2-12.98 152.72-13.45 152.09-13.72 151.45-13.99 150.72-13.99L150.72-13.99 143.71-13.99Q141.54-13.99 139.64-14.82 137.73-15.65 136.3-17.08 134.88-18.51 134.05-20.42 133.22-22.34 133.22-24.51ZM198.11-16.6L198.11 0 191.46 0 191.46-16.6Q191.46-17.29 191.21-17.9 190.95-18.51 190.49-18.97 190.02-19.43 189.41-19.69 188.8-19.95 188.12-19.95L188.12-19.95Q187.44-19.95 186.84-19.69 186.24-19.43 185.79-18.97 185.34-18.51 185.08-17.9 184.82-17.29 184.82-16.6L184.82-16.6 184.82 0 178.16 0 178.16-16.6Q178.16-17.29 177.9-17.9 177.65-18.51 177.18-18.97 176.72-19.43 176.11-19.69 175.5-19.95 174.81-19.95L174.81-19.95Q174.13-19.95 173.53-19.69 172.93-19.43 172.48-18.97 172.03-18.51 171.77-17.9 171.52-17.29 171.52-16.6L171.52-16.6 171.52 0 164.85 0 164.85-26.15 166.46-26.15 168.27-24.15Q169.66-25.32 171.34-25.96 173.01-26.61 174.81-26.61L174.81-26.61Q176.65-26.61 178.39-25.93 180.14-25.24 181.45-23.56L181.45-23.56Q182.07-24.39 182.85-24.98 183.63-25.56 184.49-25.93 185.36-26.29 186.29-26.45 187.22-26.61 188.12-26.61L188.12-26.61Q190.19-26.61 192.01-25.83 193.83-25.05 195.19-23.69 196.54-22.34 197.32-20.51 198.11-18.68 198.11-16.6L198.11-16.6ZM228.28-26.1L228.28 0 226.67 0 224.08-3.59Q223.13-2.73 222.07-1.99 221-1.25 219.83-0.7 218.66-0.15 217.43 0.17 216.19 0.49 214.92 0.49L214.92 0.49Q212.17 0.49 209.74-0.44 207.31-1.37 205.49-3.14 203.67-4.91 202.62-7.47 201.57-10.03 201.57-13.31L201.57-13.31Q201.57-16.36 202.62-18.91 203.67-21.46 205.49-23.29 207.31-25.12 209.74-26.14 212.17-27.15 214.92-27.15L214.92-27.15Q216.19-27.15 217.44-26.83 218.68-26.51 219.86-25.95 221.03-25.39 222.09-24.63 223.15-23.88 224.08-23L224.08-23 226.67-26.1 228.28-26.1ZM221.56-13.31L221.56-13.31Q221.56-14.67 221.04-15.95 220.51-17.24 219.61-18.23 218.71-19.21 217.5-19.81 216.29-20.41 214.92-20.41L214.92-20.41Q213.56-20.41 212.35-19.95 211.14-19.48 210.25-18.58 209.36-17.68 208.84-16.35 208.33-15.01 208.33-13.31L208.33-13.31Q208.33-11.6 208.84-10.27 209.36-8.94 210.25-8.03 211.14-7.13 212.35-6.67 213.56-6.2 214.92-6.2L214.92-6.2Q216.29-6.2 217.5-6.8 218.71-7.4 219.61-8.39 220.51-9.38 221.04-10.66 221.56-11.94 221.56-13.31ZM240.02-14.4L240.02 0 233.35 0 233.35-26.15 234.97-26.15 237.16-23.05Q238.77-24.51 240.82-25.31 242.88-26.1 245.07-26.1L245.07-26.1 250.96-26.1 250.96-19.46 245.07-19.46Q244.02-19.46 243.1-19.07 242.17-18.68 241.48-17.99 240.8-17.31 240.41-16.38 240.02-15.45 240.02-14.4L240.02-14.4ZM272.22 0L267.17 0Q264.75 0 262.62-0.92 260.5-1.83 258.9-3.43 257.3-5.03 256.39-7.15 255.47-9.28 255.47-11.69L255.47-11.69 255.47-19.46 252.22-19.46 252.22-26.1 255.47-26.1 255.47-36.55 262.11-36.55 262.11-26.1 272.22-26.1 272.22-19.46 262.11-19.46 262.11-11.69Q262.11-10.64 262.5-9.73 262.89-8.81 263.58-8.13 264.26-7.45 265.19-7.04 266.12-6.64 267.17-6.64L267.17-6.64 272.22-6.64 272.22 0ZM284.15-2.49L284.15-2.49Q284.15-1.42 283.95-0.18 283.74 1.05 283.29 2.26 282.84 3.47 282.12 4.55 281.4 5.64 280.37 6.4L280.37 6.4 277.71 4.54Q278.39 3.76 278.73 3.06 279.08 2.37 279.27 1.66L279.27 1.66Q278.54 1.51 277.9 1.15 277.27 0.78 276.81 0.23 276.34-0.32 276.07-1.01 275.81-1.71 275.81-2.49L275.81-2.49Q275.81-3.34 276.13-4.1 276.46-4.86 277.04-5.42 277.61-5.98 278.36-6.31 279.1-6.64 279.96-6.64L279.96-6.64Q280.83-6.64 281.6-6.31 282.37-5.98 282.95-5.42 283.52-4.86 283.84-4.1 284.15-3.34 284.15-2.49ZM301.8-24.51L301.8-24.51Q301.8-26.68 302.63-28.59 303.46-30.49 304.89-31.92 306.32-33.35 308.22-34.18 310.13-35.01 312.3-35.01L312.3-35.01 328.36-35.01 328.36-28 312.3-28Q311.57-28 310.93-27.73 310.3-27.47 309.82-26.99 309.35-26.51 309.08-25.88 308.81-25.24 308.81-24.51L308.81-24.51Q308.81-23.78 309.08-23.13 309.35-22.49 309.82-22.01 310.3-21.53 310.93-21.26 311.57-21 312.3-21L312.3-21 319.31-21Q321.48-21 323.4-20.18 325.31-19.36 326.74-17.93 328.17-16.5 328.99-14.59 329.8-12.67 329.8-10.5L329.8-10.5Q329.8-8.33 328.99-6.42 328.17-4.52 326.74-3.09 325.31-1.66 323.4-0.83 321.48 0 319.31 0L319.31 0 303.75 0 303.75-7.01 319.31-7.01Q320.04-7.01 320.67-7.28 321.31-7.54 321.78-8.02 322.26-8.5 322.53-9.13 322.8-9.77 322.8-10.5L322.8-10.5Q322.8-11.23 322.53-11.87 322.26-12.5 321.78-12.98 321.31-13.45 320.67-13.72 320.04-13.99 319.31-13.99L319.31-13.99 312.3-13.99Q310.13-13.99 308.22-14.82 306.32-15.65 304.89-17.08 303.46-18.51 302.63-20.42 301.8-22.34 301.8-24.51ZM340.35-14.94L340.35 0 333.68 0 333.68-36.55 340.35-36.55 340.35-25Q341.54-25.9 342.81-26.28 344.08-26.66 345.4-26.66L345.4-26.66Q347.82-26.66 349.94-25.74 352.07-24.83 353.64-23.23 355.22-21.63 356.13-19.49 357.05-17.36 357.05-14.94L357.05-14.94 357.05 0 350.33 0 350.33-14.94 350.38-14.94Q350.38-15.97 349.99-16.88 349.6-17.8 348.92-18.48 348.23-19.17 347.33-19.56 346.43-19.95 345.4-19.95L345.4-19.95Q344.35-19.95 343.42-19.56 342.5-19.17 341.81-18.48 341.13-17.8 340.74-16.88 340.35-15.97 340.35-14.94L340.35-14.94ZM387.05-13.31L387.05-13.31Q387.05-10.38 386-7.85 384.95-5.32 383.14-3.48 381.34-1.64 378.91-0.57 376.48 0.49 373.7 0.49L373.7 0.49Q370.94 0.49 368.51-0.57 366.08-1.64 364.26-3.48 362.44-5.32 361.39-7.85 360.34-10.38 360.34-13.31L360.34-13.31Q360.34-16.28 361.39-18.82 362.44-21.36 364.26-23.21 366.08-25.05 368.51-26.1 370.94-27.15 373.7-27.15L373.7-27.15Q376.48-27.15 378.91-26.16 381.34-25.17 383.14-23.35 384.95-21.53 386-18.98 387.05-16.43 387.05-13.31ZM380.34-13.31L380.34-13.31Q380.34-14.92 379.81-16.22 379.29-17.53 378.38-18.47 377.48-19.41 376.27-19.91 375.06-20.41 373.7-20.41L373.7-20.41Q372.33-20.41 371.12-19.91 369.91-19.41 369.02-18.47 368.13-17.53 367.62-16.22 367.1-14.92 367.1-13.31L367.1-13.31Q367.1-11.79 367.62-10.5 368.13-9.2 369.02-8.25 369.91-7.3 371.12-6.75 372.33-6.2 373.7-6.2L373.7-6.2Q375.06-6.2 376.27-6.71 377.48-7.23 378.38-8.15 379.29-9.08 379.81-10.4 380.34-11.72 380.34-13.31ZM397.45-1.76L397.45 9.96 390.73 9.96 390.73-26.15 392.35-26.15 395.01-23Q395.91-23.85 396.98-24.61 398.06-25.37 399.22-25.92 400.38-26.46 401.62-26.78 402.87-27.1 404.14-27.1L404.14-27.1Q406.9-27.1 409.33-26.11 411.75-25.12 413.57-23.32 415.39-21.51 416.44-18.96 417.49-16.41 417.49-13.31L417.49-13.31Q417.49-10.08 416.44-7.51 415.39-4.93 413.57-3.14 411.75-1.34 409.33-0.39 406.9 0.56 404.14 0.56L404.14 0.56Q403.26 0.56 402.39 0.37 401.53 0.17 400.68-0.16 399.84-0.49 399.02-0.9 398.2-1.32 397.45-1.76L397.45-1.76ZM410.8-13.31L410.8-13.31Q410.8-14.97 410.28-16.28 409.75-17.6 408.85-18.52 407.95-19.43 406.73-19.92 405.5-20.41 404.14-20.41L404.14-20.41Q402.77-20.41 401.56-19.92 400.35-19.43 399.45-18.52 398.55-17.6 398.02-16.28 397.5-14.97 397.5-13.31L397.5-13.31Q397.5-11.72 398.02-10.4 398.55-9.08 399.45-8.15 400.35-7.23 401.56-6.71 402.77-6.2 404.14-6.2L404.14-6.2Q405.5-6.2 406.73-6.71 407.95-7.23 408.85-8.15 409.75-9.08 410.28-10.4 410.8-11.72 410.8-13.31ZM470.61-35.01L470.61-10.01Q470.61-7.84 469.79-5.92 468.98-4 467.55-2.58 466.12-1.15 464.2-0.33 462.29 0.49 460.11 0.49L460.11 0.49Q458.16 0.49 456.37-0.2 454.57-0.88 453.13-2.2L453.13-2.2Q451.69-0.88 449.88-0.2 448.08 0.49 446.12 0.49L446.12 0.49Q443.95 0.49 442.04-0.33 440.12-1.15 438.69-2.58 437.26-4 436.44-5.92 435.63-7.84 435.63-10.01L435.63-10.01 435.63-35.01 442.63-35.01 442.63-10.01Q442.63-9.28 442.9-8.63 443.17-7.98 443.65-7.51 444.12-7.03 444.76-6.76 445.39-6.49 446.12-6.49L446.12-6.49Q446.86-6.49 447.49-6.76 448.13-7.03 448.6-7.51 449.08-7.98 449.35-8.63 449.62-9.28 449.62-10.01L449.62-10.01 449.62-35.01 456.62-35.01 456.62-10.01Q456.62-9.28 456.89-8.63 457.16-7.98 457.64-7.51 458.11-7.03 458.75-6.76 459.38-6.49 460.11-6.49L460.11-6.49Q460.85-6.49 461.48-6.76 462.12-7.03 462.59-7.51 463.07-7.98 463.35-8.63 463.63-9.28 463.63-10.01L463.63-10.01 463.63-35.01 470.61-35.01ZM501.13-26.1L501.13 0 499.52 0 496.93-3.59Q495.98-2.73 494.91-1.99 493.85-1.25 492.68-0.7 491.51-0.15 490.27 0.17 489.04 0.49 487.77 0.49L487.77 0.49Q485.01 0.49 482.58-0.44 480.16-1.37 478.34-3.14 476.52-4.91 475.47-7.47 474.42-10.03 474.42-13.31L474.42-13.31Q474.42-16.36 475.47-18.91 476.52-21.46 478.34-23.29 480.16-25.12 482.58-26.14 485.01-27.15 487.77-27.15L487.77-27.15Q489.04-27.15 490.29-26.83 491.53-26.51 492.7-25.95 493.88-25.39 494.94-24.63 496-23.88 496.93-23L496.93-23 499.52-26.1 501.13-26.1ZM494.41-13.31L494.41-13.31Q494.41-14.67 493.89-15.95 493.36-17.24 492.46-18.23 491.56-19.21 490.35-19.81 489.14-20.41 487.77-20.41L487.77-20.41Q486.41-20.41 485.2-19.95 483.99-19.48 483.1-18.58 482.21-17.68 481.69-16.35 481.18-15.01 481.18-13.31L481.18-13.31Q481.18-11.6 481.69-10.27 482.21-8.94 483.1-8.03 483.99-7.13 485.2-6.67 486.41-6.2 487.77-6.2L487.77-6.2Q489.14-6.2 490.35-6.8 491.56-7.4 492.46-8.39 493.36-9.38 493.89-10.66 494.41-11.94 494.41-13.31ZM526.61-6.64L526.61 0 504.81 0 515.82-19.46 504.81-19.46 504.81-26.1 526.61-26.1 515.6-6.64 526.61-6.64ZM538.16-33.25L538.16-33.25Q538.16-32.32 537.8-31.52 537.45-30.71 536.84-30.11 536.23-29.52 535.41-29.16 534.59-28.81 533.67-28.81L533.67-28.81Q532.74-28.81 531.92-29.16 531.1-29.52 530.5-30.11 529.91-30.71 529.55-31.52 529.2-32.32 529.2-33.25L529.2-33.25Q529.2-34.16 529.55-34.97 529.91-35.79 530.5-36.39 531.1-36.99 531.92-37.34 532.74-37.7 533.67-37.7L533.67-37.7Q534.59-37.7 535.41-37.34 536.23-36.99 536.84-36.39 537.45-35.79 537.8-34.97 538.16-34.16 538.16-33.25ZM537.01-26.15L537.01 0 530.3 0 530.3-26.15 537.01-26.15ZM570.8-10.5L570.8-10.5Q570.8-8.33 569.97-6.42 569.14-4.52 567.71-3.09 566.28-1.66 564.38-0.83 562.47 0 560.3 0L560.3 0 542.79 0 542.79-35.01 560.3-35.01Q562.47-35.01 564.38-34.18 566.28-33.35 567.71-31.92 569.14-30.49 569.97-28.59 570.8-26.68 570.8-24.51L570.8-24.51Q570.8-23.54 570.53-22.51 570.26-21.48 569.77-20.53 569.28-19.58 568.6-18.8 567.92-18.02 567.09-17.5L567.09-17.5Q567.94-17.04 568.62-16.25 569.31-15.45 569.8-14.5 570.28-13.55 570.54-12.51 570.8-11.47 570.8-10.5ZM549.8-13.99L549.8-7.01 560.3-7.01Q561.03-7.01 561.67-7.28 562.3-7.54 562.78-8.02 563.25-8.5 563.52-9.13 563.79-9.77 563.79-10.5L563.79-10.5Q563.79-11.23 563.52-11.87 563.25-12.5 562.78-12.98 562.3-13.45 561.67-13.72 561.03-13.99 560.3-13.99L560.3-13.99 549.8-13.99ZM549.8-28L549.8-21 560.3-21Q561.03-21 561.67-21.26 562.3-21.53 562.78-22.01 563.25-22.49 563.52-23.13 563.79-23.78 563.79-24.51L563.79-24.51Q563.79-25.24 563.52-25.88 563.25-26.51 562.78-26.99 562.3-27.47 561.67-27.73 561.03-28 560.3-28L560.3-28 549.8-28ZM583.25-33.25L583.25-33.25Q583.25-32.32 582.89-31.52 582.54-30.71 581.93-30.11 581.32-29.52 580.5-29.16 579.68-28.81 578.75-28.81L578.75-28.81Q577.83-28.81 577.01-29.16 576.19-29.52 575.59-30.11 574.99-30.71 574.64-31.52 574.29-32.32 574.29-33.25L574.29-33.25Q574.29-34.16 574.64-34.97 574.99-35.79 575.59-36.39 576.19-36.99 577.01-37.34 577.83-37.7 578.75-37.7L578.75-37.7Q579.68-37.7 580.5-37.34 581.32-36.99 581.93-36.39 582.54-35.79 582.89-34.97 583.25-34.16 583.25-33.25ZM582.1-26.15L582.1 0 575.38 0 575.38-26.15 582.1-26.15ZM607.58-6.64L607.58 0 585.78 0 596.79-19.46 585.78-19.46 585.78-26.1 607.58-26.1 596.57-6.64 607.58-6.64Z" opacity="1" transform="matrix(1,0,0,1,0,0)" fill="#ffffff" class="slogan-text-1" data-fill-palette-color="secondary" id="text-1"></path></svg></g></svg></g></svg></g></svg></g><g><svg viewBox="0 0 186.67511563118484 164.9727445837773" height="164.9727445837773" width="186.67511563118484"><g><svg xmlns="http://www.w3.org/2000/svg" xmlns:xlink="http://www.w3.org/1999/xlink" version="1.1" x="0" y="0" viewBox="9.220000267028809 11.140000343322754 85.12999725341797 75.23300170898438" enable-background="new 0 0 100 100" xml:space="preserve" height="164.9727445837773" width="186.67511563118484" class="icon-icon-0" data-fill-palette-color="accent" id="icon-0"><g fill="#ffffff" data-fill-palette-color="accent"><g fill="#ffffff" data-fill-palette-color="accent"><path d="M70.611 34.62l-4.199-21.618h6.708l6.993 21.618H70.611zM47.05 34.62l1.389-21.618h6.446l1.327 21.618H47.05zM23.523 34.62l6.919-21.618h6.751L32.911 34.62H23.523zM22.957 65.521V39.557c0.93 1.638 3.045 2.978 5.306 2.978 2.572 0 4.634-1.735 5.849-3.668 1.213 1.933 3.308 3.668 5.881 3.668 2.572 0 4.684-1.735 5.896-3.668 1.213 1.933 3.332 3.668 5.906 3.668 2.572 0 4.696-1.735 5.91-3.668 1.212 1.933 3.337 3.668 5.908 3.668 2.574 0 4.699-1.735 5.914-3.668 1.213 1.933 3.209 3.668 5.783 3.668 2.262 0 4.373-1.34 5.303-2.978v25.964H22.957L22.957 65.521zM94.25 34.62c0.01 0 0.02-0.23-0.02-0.36-0.061-0.19-0.181-0.32-0.32-0.44l-9.73-21.9c-0.14-0.46-0.58-0.78-1.069-0.78H20.46c-0.49 0-0.92 0.33-1.07 0.8L9.8 33.74c-0.22 0.15-0.4 0.33-0.48 0.6-0.03 0.11-0.01 0.28-0.01 0.28H9.22l0.09 1.25c0.2 2.63 3.13 6.64 7.04 6.64 0.67 0 1.03-0.1 1.96 2.69l0.065 41.173c1.78 0 27.875-0.043 27.875-0.043v-9.95c0-3.25 2.63-5.88 5.87-5.88 1.62 0 3.1 0.66 4.16 1.72C57.34 73.28 58 74.76 58 76.38v9.95c0 0 24.105-0.079 27.125-0.079L85.27 45.2c0.931-2.79 1.28-2.67 1.95-2.67 3.91 0 6.82-4.03 7.021-6.66l0.109-1.25H94.25z" fill="#ffffff" data-fill-palette-color="accent"></path></g></g><rect x="29.5" y="46.5" width="13.5" height="12.75" fill="#ffffff" data-fill-palette-color="accent"></rect><rect x="45.375" y="46.5" width="13.5" height="12.75" fill="#ffffff" data-fill-palette-color="accent"></rect><rect x="61.25" y="46.5" width="13.5" height="12.75" fill="#ffffff" data-fill-palette-color="accent"></rect></svg></g></svg></g></svg></g><defs></defs></svg><rect width="395.52" height="103.86819356668875" fill="none" stroke="none" visibility="hidden"></rect></g></svg></g></svg>